<svg width="345" height="106" viewBox="0 0 345 106" fill="none" xmlns="http://www.w3.org/2000/svg">
<path d="M42.5 4C42.5 4 42.8333 3.66667 43.5 3C44.5 2.33333 45.1667 2 45.5 2C46.1667 2 47.6667 2.5 50 3.5C52.3333 4.16667 54 4.83333 55 5.5C56 5.83333 56.8333 6.16667 57.5 6.5C58.5 6.83333 59 7 59 7C59.3333 7 59.6667 7 60 7C60.6667 7 61.3333 7.5 62 8.5C63 9.16667 63.5 9.66667 63.5 10C63.5 10 63.5 10.3333 63.5 11C63.5 11.3333 63.1667 12 62.5 13C62.1667 13.6667 61.6667 14.3333 61 15C60.6667 15.3333 60.1667 15.8333 59.5 16.5C59.1667 16.8333 58.8333 17.3333 58.5 18C58.5 18.3333 58.6667 20 59 23C59.3333 25.6667 59.8333 29.3333 60.5 34C61.1667 38.3333 61.8333 41.6667 62.5 44C63.5 46.3333 65.1667 48.8333 67.5 51.5C69.8333 54.1667 72.1667 57.1667 74.5 60.5C77.1667 63.8333 80.6667 67.1667 85 70.5C89.6667 73.8333 94.1667 76.5 98.5 78.5C103.167 80.1667 105.833 81.1667 106.5 81.5C107.5 81.8333 108.5 82.3333 109.5 83C110.5 83.6667 111.333 84.1667 112 84.5L114 86C113 87 112.333 87.6667 112 88C111.667 88.3333 111.333 88.6667 111 89C110.667 89 110 89.1667 109 89.5C108 89.5 107.167 89.5 106.5 89.5C105.833 89.5 104.833 89.8333 103.5 90.5C102.5 90.8333 101.667 91.1667 101 91.5C100.333 91.8333 99.5 92.1667 98.5 92.5C97.8333 92.5 97.1667 92.6667 96.5 93C95.8333 93.3333 95.3333 93.5 95 93.5C95 93.5 94.3333 93.5 93 93.5C92 93.5 89.5 92.1667 85.5 89.5C81.8333 86.5 78.8333 84 76.5 82C74.5 79.6667 72.6667 77.6667 71 76C69.3333 74 67.5 71.5 65.5 68.5C63.8333 65.5 62.6667 63 62 61C61.3333 59 60.6667 57.1667 60 55.5C59.3333 53.5 58.8333 52.1667 58.5 51.5C58.5 50.8333 58.3333 50.1667 58 49.5C58 48.5 58 47.8333 58 47.5C58 47.1667 57.8333 46.8333 57.5 46.5C57.5 45.8333 57.5 45.5 57.5 45.5C57.5 45.1667 57.5 45 57.5 45C57.5 45 57.3333 44.6667 57 44C57 43.3333 57 42.6667 57 42C57 41.3333 56.8333 40.6667 56.5 40C56.5 39.3333 56.5 38.5 56.5 37.5C56.5 36.1667 56.3333 35.1667 56 34.5C56 33.5 56 32.6667 56 32C56 31.3333 55.8333 30.6667 55.5 30C55.5 29.3333 55.5 29 55.5 29C55.5 28.6667 55.5 28.5 55.5 28.5C55.5 28.1667 55.5 28 55.5 28C55.5 27.6667 55.3333 27.5 55 27.5C55 27.1667 54.8333 27 54.5 27C54.5 27 54.5 27.1667 54.5 27.5C54.5 27.8333 54.5 28.5 54.5 29.5C54.5 30.1667 54.5 31.3333 54.5 33C54.5 34.3333 54.1667 36.5 53.5 39.5C52.8333 42.1667 52 44.5 51 46.5C50.3333 48.1667 49.5 50.1667 48.5 52.5C47.8333 54.5 46.3333 57.3333 44 61C42 64.6667 40.3333 67.1667 39 68.5C37.6667 69.8333 36.8333 70.6667 36.5 71C36.5 71 36.3333 71.1667 36 71.5C35.6667 71.8333 35.3333 72.1667 35 72.5C35 72.8333 34.3333 73.8333 33 75.5C32 76.8333 29.1667 79.5 24.5 83.5C20.1667 87.1667 16.6667 89.8333 14 91.5C11.3333 93.1667 9.66667 94.1667 9 94.5C8.66667 94.8333 8.16667 95.1667 7.5 95.5C6.83333 95.8333 6.33333 96.1667 6 96.5C5.66667 96.8333 5.16667 97.3333 4.5 98C3.83333 98.3333 3.16667 98.5 2.5 98.5C1.83333 98.5 1.33333 98.3333 1 98C1 97.3333 0.833333 96.8333 0.5 96.5C0.166667 95.8333 0 95.5 0 95.5C0.333333 95.1667 1.16667 94.5 2.5 93.5C3.83333 92.5 5.5 91.1667 7.5 89.5C9.5 87.8333 10.8333 86.8333 11.5 86.5C12.1667 85.8333 13.1667 85 14.5 84C15.8333 82.6667 17 81.5 18 80.5C19.3333 79.1667 20.6667 77.8333 22 76.5C23.3333 74.8333 24.3333 73.6667 25 73C25.6667 72.3333 26.3333 71.5 27 70.5C28 69.1667 29.3333 67.5 31 65.5C32.6667 63.1667 33.6667 61.8333 34 61.5C34.3333 60.8333 35 59.6667 36 58C37 56.3333 38.1667 53.6667 39.5 50C40.8333 46.3333 41.6667 43.8333 42 42.5C42.3333 41.1667 42.5 40.3333 42.5 40C42.5 39.6667 42.5 39 42.5 38C42.8333 36.6667 43 35.5 43 34.5C43 33.5 43 32.5 43 31.5C43.3333 30.5 43.5 29 43.5 27C43.8333 25 44.1667 22.5 44.5 19.5L45 11.5C43.6667 10.1667 42.8333 9.33333 42.5 9C42.1667 8.66667 41.8333 8.33333 41.5 8C41.1667 7.66667 41 7.5 41 7.5C41 7.16667 41 7 41 7C41 6.66667 41.1667 6.33333 41.5 6C41.8333 5.33333 42.1667 4.66667 42.5 4ZM167.54 0.5C167.54 0.5 167.707 0.5 168.04 0.5C168.373 0.5 168.707 0.5 169.04 0.5C169.373 0.166667 169.54 0 169.54 0C169.873 0 170.207 0 170.54 0C171.207 0 173.04 0.5 176.04 1.5C179.04 2.16667 180.707 2.66667 181.04 3C181.707 3.33333 182.207 3.66667 182.54 4C183.207 4.33333 183.54 4.66667 183.54 5C183.54 5 183.54 5.16667 183.54 5.5C183.54 5.83333 183.373 6.16667 183.04 6.5C183.04 6.5 182.873 6.83333 182.54 7.5C182.54 7.83333 182.373 8.16667 182.04 8.5C182.04 8.5 181.873 8.66667 181.54 9C181.54 9.33333 181.373 9.66667 181.04 10C181.04 10.3333 181.04 10.6667 181.04 11C181.04 11 181.04 11.1667 181.04 11.5C181.373 11.5 181.54 11.5 181.54 11.5C181.873 11.5 183.873 11.5 187.54 11.5C191.54 11.5 195.207 11.5 198.54 11.5C202.207 11.5 204.373 11.5 205.04 11.5C205.707 11.5 206.207 11.3333 206.54 11C207.207 10.6667 207.707 10.5 208.04 10.5C208.707 10.1667 209.207 9.83333 209.54 9.5C209.873 9.16667 210.04 9 210.04 9C210.373 8.66667 210.54 8.5 210.54 8.5C210.873 8.5 211.207 8.33333 211.54 8C211.873 7.66667 212.373 7.33333 213.04 7L215.04 6C216.707 6.66667 218.373 7.5 220.04 8.5C221.707 9.16667 222.707 10 223.04 11C223.707 12 223.707 12.8333 223.04 13.5C222.373 14.1667 221.873 14.6667 221.54 15C221.207 15 220.873 15.1667 220.54 15.5C220.207 15.5 219.373 15.5 218.04 15.5C216.707 15.5 215.54 15.6667 214.54 16C213.873 16 212.707 16.1667 211.04 16.5C209.707 16.5 208.54 16.5 207.54 16.5C206.873 16.5 206.04 16.6667 205.04 17C204.373 17 202.873 17 200.54 17C198.54 17 196.54 17 194.54 17C192.873 17 190.04 17.1667 186.04 17.5C182.373 17.5 180.54 17.5 180.54 17.5C180.54 17.5 180.54 18.1667 180.54 19.5C180.54 20.5 180.54 21.6667 180.54 23C180.54 24 180.54 24.5 180.54 24.5C180.873 24.5 182.207 24.5 184.54 24.5C186.873 24.5 188.873 24.5 190.54 24.5C192.207 24.1667 193.207 24 193.54 24C194.207 24 194.707 23.8333 195.04 23.5C195.373 23.1667 195.873 22.8333 196.54 22.5C197.54 21.8333 198.373 21.3333 199.04 21C200.04 20.3333 200.54 20 200.54 20C200.873 20 201.207 20 201.54 20C201.873 20 203.04 20.5 205.04 21.5C207.04 22.1667 208.207 22.6667 208.54 23C208.873 23.3333 209.207 23.8333 209.54 24.5C210.207 24.8333 210.54 25.3333 210.54 26C210.873 26.6667 210.873 27.1667 210.54 27.5C210.207 27.8333 210.04 28.1667 210.04 28.5C210.04 28.8333 209.873 29.1667 209.54 29.5C209.207 29.8333 209.04 30.1667 209.04 30.5C209.04 30.8333 208.54 31.6667 207.54 33C206.873 34.3333 207.04 35.3333 208.04 36C209.373 36.6667 210.707 36.5 212.04 35.5C213.707 34.1667 215.207 33.1667 216.54 32.5C217.873 31.5 218.707 30.8333 219.04 30.5C219.373 30.1667 219.707 30 220.04 30C220.373 30 220.54 30 220.54 30C220.873 30 221.373 30.1667 222.04 30.5C222.707 30.8333 223.207 31.3333 223.54 32C224.207 32.3333 225.707 33.5 228.04 35.5C230.373 37.1667 231.207 38.3333 230.54 39C229.873 39.6667 227.207 40.1667 222.54 40.5C218.207 40.5 215.04 40.6667 213.04 41C211.04 41 209.873 41 209.54 41C209.207 41 208.873 41.1667 208.54 41.5C208.207 41.8333 207.873 42.1667 207.54 42.5C207.207 42.5 207.04 42.6667 207.04 43C207.04 43 207.04 43.1667 207.04 43.5C207.04 43.8333 207.04 44.1667 207.04 44.5C207.373 44.8333 207.54 45.3333 207.54 46C207.54 46.3333 207.54 46.8333 207.54 47.5C207.873 47.8333 208.04 48.3333 208.04 49C208.04 49.6667 208.04 50 208.04 50C208.04 50 207.873 50.1667 207.54 50.5C207.207 50.8333 206.873 51.1667 206.54 51.5C206.207 51.8333 205.707 52 205.04 52C204.707 52 200.04 52 191.04 52H176.04C176.04 53 176.04 53.8333 176.04 54.5C176.04 54.8333 175.873 55.1667 175.54 55.5C175.54 55.5 175.207 55.8333 174.54 56.5C174.207 56.8333 173.373 57.6667 172.04 59C170.707 60 169.873 60.5 169.54 60.5C169.54 60.5 174.54 60.5 184.54 60.5C194.873 60.5 202.04 60.5 206.04 60.5C210.373 60.5 212.54 60.5 212.54 60.5C212.54 60.5 213.04 60 214.04 59C215.373 58 216.207 57.3333 216.54 57C217.207 56.6667 217.707 56.5 218.04 56.5C218.373 56.1667 218.707 56 219.04 56C219.707 55.6667 220.207 55.5 220.54 55.5C221.207 55.5 221.54 55.5 221.54 55.5C221.873 55.5 222.373 55.8333 223.04 56.5C224.04 57.1667 225.207 58.1667 226.54 59.5C227.873 60.5 228.707 61.5 229.04 62.5C229.373 63.5 229.04 64.3333 228.04 65C227.373 65.3333 226.707 65.6667 226.04 66C225.707 66 222.04 66.1667 215.04 66.5C208.373 66.5 204.707 66.5 204.04 66.5C203.707 66.1667 203.373 66 203.04 66C202.707 65.6667 202.373 65.5 202.04 65.5C202.04 65.5 201.873 65.6667 201.54 66C201.54 66 201.373 66.1667 201.04 66.5C201.04 66.5 201.207 66.8333 201.54 67.5C201.873 67.8333 202.207 68.1667 202.54 68.5C202.873 68.8333 203.04 69.1667 203.04 69.5C203.373 69.8333 203.54 70.1667 203.54 70.5C203.54 70.5 203.54 70.8333 203.54 71.5C203.54 71.8333 203.207 72.3333 202.54 73C201.873 73.6667 201.207 74.1667 200.54 74.5C199.873 74.8333 199.04 75.1667 198.04 75.5C197.04 75.8333 195.707 76.6667 194.04 78C192.373 79 191.54 79.6667 191.54 80C191.54 80 191.54 80.1667 191.54 80.5C191.54 80.5 191.54 80.6667 191.54 81C191.873 81 194.04 81.5 198.04 82.5C202.373 83.1667 205.373 83.6667 207.04 84C209.04 84.3333 210.04 84.6667 210.04 85C210.373 85 210.707 85.3333 211.04 86C211.373 86.3333 211.707 86.8333 212.04 87.5C212.373 88.1667 212.707 89.3333 213.04 91C213.707 92.3333 214.04 93.5 214.04 94.5C214.373 95.5 214.54 96.3333 214.54 97C214.54 97.6667 214.54 98.1667 214.54 98.5C214.54 98.5 214.373 98.6667 214.04 99C213.707 99.3333 213.207 99.8333 212.54 100.5C212.207 101.167 211.873 101.333 211.54 101C211.207 101 210.373 100.667 209.04 100C208.04 99 206.873 98.1667 205.54 97.5C204.54 96.5 202.373 95.3333 199.04 94C196.04 92.6667 193.373 91.6667 191.04 91C188.707 90 185.873 89 182.54 88C179.207 87 177.54 86.5 177.54 86.5C177.873 86.5 176.373 87 173.04 88C170.04 89 167.707 89.8333 166.04 90.5C164.707 90.8333 163.373 91.3333 162.04 92C160.707 92.3333 159.873 92.5 159.54 92.5C159.54 92.5 159.373 92.5 159.04 92.5C159.04 92.5 158.707 92.6667 158.04 93C157.373 93 156.707 93.1667 156.04 93.5C155.707 93.5 155.207 93.6667 154.54 94C153.873 94 153.04 94.1667 152.04 94.5C151.04 94.8333 150.207 95.1667 149.54 95.5C148.873 95.5 148.04 95.5 147.04 95.5C146.373 95.5 145.373 95.6667 144.04 96C142.707 96.3333 141.54 96.6667 140.54 97C139.873 97.3333 139.04 97.6667 138.04 98C137.04 98 135.873 98.1667 134.54 98.5C133.207 98.8333 131.873 99.1667 130.54 99.5L126.54 100.5C125.873 99.5 125.373 98.8333 125.04 98.5C124.707 98.1667 124.54 98 124.54 98C124.54 98 124.54 97.8333 124.54 97.5C124.873 97.1667 125.04 97 125.04 97C125.373 97 126.04 96.8333 127.04 96.5C128.373 95.8333 129.707 95.3333 131.04 95C132.373 94.6667 134.54 94 137.54 93C140.873 92 144.54 90.8333 148.54 89.5C152.873 87.8333 155.54 86.8333 156.54 86.5C157.873 86.1667 158.707 85.8333 159.04 85.5C159.373 85.1667 159.707 85 160.04 85C160.707 84.6667 161.04 84.5 161.04 84.5C161.373 84.5 161.707 84.5 162.04 84.5C162.373 84.1667 162.54 83.8333 162.54 83.5C162.873 83.1667 162.873 83 162.54 83C162.207 82.6667 161.873 82.5 161.54 82.5C161.54 82.5 161.207 82.5 160.54 82.5C159.873 82.1667 159.207 82 158.54 82C158.207 81.6667 157.54 81.5 156.54 81.5C155.54 81.1667 154.873 81 154.54 81C154.207 81 153.54 81.1667 152.54 81.5C151.873 81.8333 150.873 82.1667 149.54 82.5C148.207 82.8333 147.373 83 147.04 83C146.707 83 146.207 82.5 145.54 81.5C144.873 80.1667 144.207 79 143.54 78C142.873 77 142.54 76.3333 142.54 76C142.873 75.6667 143.373 75.3333 144.04 75C144.707 74.3333 145.54 73.8333 146.54 73.5C147.54 72.8333 148.707 71.6667 150.04 70C151.707 68 152.373 66.8333 152.04 66.5C152.04 66.1667 151.873 66 151.54 66C151.207 65.6667 148.873 65.8333 144.54 66.5C140.207 66.8333 137.373 67.1667 136.04 67.5C135.04 67.8333 133.873 68.1667 132.54 68.5C131.54 68.8333 130.54 69.1667 129.54 69.5C128.873 69.5 128.207 69.3333 127.54 69C127.207 68.6667 126.873 68.5 126.54 68.5C126.54 68.5 126.373 68.3333 126.04 68C125.707 67.3333 125.373 66.8333 125.04 66.5C125.04 65.8333 124.707 64.6667 124.04 63C123.373 61.3333 123.207 60.3333 123.54 60C124.207 59.3333 125.207 59.1667 126.54 59.5C128.207 59.8333 129.373 60.1667 130.04 60.5C131.04 60.5 135.373 60.5 143.04 60.5C150.707 60.5 154.707 60.5 155.04 60.5C155.707 60.1667 156.207 60 156.54 60C157.207 59.6667 157.873 59.1667 158.54 58.5C159.207 57.8333 159.707 57.3333 160.04 57C160.373 56.3333 160.54 55.8333 160.54 55.5C160.54 55.1667 160.54 55 160.54 55C160.873 54.6667 160.873 54.5 160.54 54.5C160.54 54.1667 160.373 54 160.04 54C160.04 53.6667 160.04 53.3333 160.04 53C160.04 52.6667 160.04 52.5 160.04 52.5C160.04 52.1667 160.04 52 160.04 52C160.373 52 160.54 52 160.54 52C160.54 51.6667 160.373 51.5 160.04 51.5C160.04 51.5 160.04 51.6667 160.04 52C160.04 52 159.373 52 158.04 52C156.707 52 155.373 52 154.04 52C152.707 52 150.707 52 148.04 52C145.373 52 144.04 52 144.04 52C144.04 52 143.873 51.8333 143.54 51.5C143.207 51.1667 142.873 51 142.54 51C142.207 50.6667 141.873 50.3333 141.54 50C141.54 49.6667 141.54 49.5 141.54 49.5C141.54 49.1667 141.54 48.6667 141.54 48C141.54 47.3333 141.707 47 142.04 47C142.707 46.6667 145.04 46.5 149.04 46.5C153.373 46.5 157.54 46.5 161.54 46.5C165.54 46.5 167.707 46.5 168.04 46.5C168.373 46.5 168.54 46.1667 168.54 45.5C168.54 44.8333 168.54 44.3333 168.54 44C168.54 43.6667 168.373 43.3333 168.04 43C168.04 42.6667 167.873 42.5 167.54 42.5C167.54 42.1667 167.373 42 167.04 42C166.707 41.6667 166.373 41.5 166.04 41.5C165.707 41.5 163.373 41.5 159.04 41.5C155.04 41.5 151.04 41.5 147.04 41.5C143.04 41.5 140.707 41.5 140.04 41.5C139.707 41.5 139.04 41.6667 138.04 42C137.373 42.3333 136.207 42.8333 134.54 43.5C132.873 43.8333 131.873 44 131.54 44C131.54 44 131.04 43.5 130.04 42.5C129.04 41.5 128.04 40.5 127.04 39.5C126.04 38.5 125.54 37.8333 125.54 37.5C125.54 36.8333 125.707 36.3333 126.04 36C126.707 35.6667 127.207 35.3333 127.54 35C127.873 34.6667 128.207 34.5 128.54 34.5C128.873 34.5 129.373 34.6667 130.04 35C130.707 35 131.207 35.1667 131.54 35.5C132.207 35.5 133.04 35.5 134.04 35.5C135.04 35.5 135.873 35.5 136.54 35.5C137.207 35.5 137.873 35.5 138.54 35.5C139.54 35.5 141.207 35.6667 143.54 36C145.873 36 148.207 36 150.54 36C152.873 36 155.873 36.1667 159.54 36.5C163.207 36.5 165.207 36.5 165.54 36.5C165.873 36.5 166.207 36.5 166.54 36.5C166.873 36.1667 167.373 35.8333 168.04 35.5C168.707 34.8333 169.04 34.1667 169.04 33.5C169.04 32.8333 168.707 32.1667 168.04 31.5C167.707 30.8333 167.373 30.3333 167.04 30C166.707 29.6667 166.373 29.5 166.04 29.5C166.04 29.5 164.04 29.5 160.04 29.5C156.373 29.5 152.54 29.5 148.54 29.5C144.54 29.5 142.207 29.5 141.54 29.5C140.873 29.1667 140.373 28.6667 140.04 28C139.707 27.3333 139.373 26.8333 139.04 26.5C139.04 25.8333 139.04 25.5 139.04 25.5C139.04 25.5 139.207 25.5 139.54 25.5C140.207 25.1667 140.707 25 141.04 25C141.373 24.6667 142.04 24.5 143.04 24.5C144.04 24.1667 146.04 24.1667 149.04 24.5C152.373 24.5 156.207 24.5 160.54 24.5C165.207 24.5 167.54 24.5 167.54 24.5C167.873 24.5 168.04 24 168.04 23C168.04 21.6667 168.04 20.8333 168.04 20.5C168.04 19.8333 167.873 19.3333 167.54 19C167.54 18.6667 167.54 18.5 167.54 18.5C167.54 18.1667 167.373 18 167.04 18C166.707 17.6667 164.04 17.5 159.04 17.5C154.04 17.5 149.707 17.6667 146.04 18C142.373 18 139.207 18.1667 136.54 18.5C133.873 18.5 132.207 18.5 131.54 18.5C131.207 18.1667 130.373 17.3333 129.04 16L128.04 15L129.04 13.5L130.54 12.5C142.54 12.5 151.04 12.5 156.04 12.5C161.373 12.5 164.373 12.5 165.04 12.5C166.04 12.5 166.54 12.3333 166.54 12C166.873 11.6667 167.207 11.3333 167.54 11C168.207 10.6667 168.373 10.3333 168.04 10C168.04 9.66667 167.707 9 167.04 8C166.707 6.66667 166.207 5.5 165.54 4.5C165.207 3.16667 165.04 2.33333 165.04 2C165.373 1.66667 166.207 1.16667 167.54 0.5ZM194.04 30C194.04 30 193.873 30 193.54 30C193.54 29.6667 193.207 29.5 192.54 29.5C191.873 29.5 191.04 29.5 190.04 29.5C189.04 29.5 187.54 29.5 185.54 29.5C183.54 29.5 182.207 29.6667 181.54 30C180.873 30.3333 180.373 31 180.04 32C180.04 33 179.873 33.8333 179.54 34.5C179.54 34.8333 179.54 35.1667 179.54 35.5C179.54 35.5 179.707 35.6667 180.04 36C180.373 36 180.707 36.1667 181.04 36.5C181.373 36.8333 181.707 37 182.04 37C182.373 37 183.373 37 185.04 37C186.707 36.6667 188.207 36.5 189.54 36.5C191.207 36.5 192.207 36.5 192.54 36.5C193.207 36.1667 193.54 36 193.54 36C193.873 35.6667 194.207 35.3333 194.54 35C195.207 34.6667 195.54 34 195.54 33C195.54 31.6667 195.04 30.6667 194.04 30ZM193.54 42C193.54 42 193.373 41.8333 193.04 41.5C193.04 41.1667 192.873 41 192.54 41C192.207 41 191.54 41 190.54 41C189.873 41 188.04 41.1667 185.04 41.5C182.373 41.5 180.707 41.6667 180.04 42C179.373 42 179.04 43 179.04 45L179.54 46.5C183.873 46.8333 186.707 47 188.04 47C189.373 47 190.54 47 191.54 47C192.54 47 193.04 47 193.04 47C193.373 46.6667 193.707 46.5 194.04 46.5C194.707 46.1667 195.04 45.5 195.04 44.5C195.04 43.5 194.54 42.6667 193.54 42ZM188.54 66C188.54 65.6667 188.207 65.5 187.54 65.5C186.873 65.1667 184.873 65 181.54 65C178.54 65 175.707 65 173.04 65C170.373 65 168.54 65 167.54 65C166.54 65 165.873 65.1667 165.54 65.5C165.207 65.5 164.707 65.6667 164.04 66C163.707 66.3333 162.04 67.8333 159.04 70.5C156.373 73.1667 155.04 74.6667 155.04 75C155.04 75 155.04 75.1667 155.04 75.5C155.04 75.5 155.373 75.6667 156.04 76C156.707 76 157.373 76 158.04 76C158.707 76 159.207 76 159.54 76C159.873 76 160.54 76.1667 161.54 76.5C162.873 76.5 164.04 76.6667 165.04 77C166.04 77 167.54 77.1667 169.54 77.5C171.873 77.5 173.207 77.5 173.54 77.5C173.873 77.5 174.54 77 175.54 76C176.873 75 177.707 74.5 178.04 74.5C178.707 74.1667 179.207 73.8333 179.54 73.5C179.873 73.1667 180.04 73 180.04 73C180.373 73 180.707 73 181.04 73C181.373 72.6667 181.707 72.3333 182.04 72C182.373 71.6667 182.54 71.5 182.54 71.5C182.873 71.1667 183.373 70.8333 184.04 70.5C184.707 69.8333 185.207 69.3333 185.54 69C185.873 68.6667 186.207 68.3333 186.54 68C187.207 67.6667 187.707 67.3333 188.04 67C188.373 66.6667 188.54 66.3333 188.54 66ZM264.58 1.5C264.58 1.5 264.747 1.33333 265.08 1C265.747 0.666667 266.08 0.5 266.08 0.5C266.413 0.5 267.413 0.833333 269.08 1.5C271.08 1.83333 273.08 2.33333 275.08 3C277.413 3.33333 278.58 3.66667 278.58 4C278.913 4 278.747 4.66667 278.08 6C277.747 7 277.413 7.83333 277.08 8.5C277.08 8.83333 276.913 9.33333 276.58 10C276.58 10.6667 276.58 11.5 276.58 12.5V15.5C277.58 15.8333 278.247 16 278.58 16C278.913 16 279.247 16 279.58 16C279.913 15.6667 280.247 15.3333 280.58 15C280.913 14.6667 281.247 14.3333 281.58 14C282.247 13.6667 282.58 13.5 282.58 13.5C282.913 13.1667 283.08 13 283.08 13C283.413 13 283.58 13 283.58 13C283.913 13 284.58 13.3333 285.58 14C286.58 14.3333 287.08 14.6667 287.08 15C287.413 15.3333 287.58 15.6667 287.58 16C287.913 16 288.247 16.1667 288.58 16.5C288.913 16.5 289.08 16.5 289.08 16.5C289.413 16.5 289.747 16.5 290.08 16.5C290.413 16.5 290.913 16.1667 291.58 15.5C292.247 14.5 292.58 13.8333 292.58 13.5C292.58 13.1667 292.58 13 292.58 13C292.58 13 292.58 12.8333 292.58 12.5C292.913 12.1667 293.08 11.8333 293.08 11.5C293.413 11.1667 293.747 10.6667 294.08 10C294.413 9.33333 294.747 9 295.08 9C295.747 9 296.413 9.33333 297.08 10C297.747 10.3333 298.413 10.6667 299.08 11C300.08 11.3333 301.08 12.3333 302.08 14C303.413 15.3333 304.08 16.3333 304.08 17C304.08 17.3333 304.08 17.6667 304.08 18C304.08 18 303.747 18.3333 303.08 19C302.747 19.3333 302.247 19.8333 301.58 20.5C301.247 20.8333 300.747 21.3333 300.08 22C299.747 22.3333 299.247 22.8333 298.58 23.5C297.913 24.1667 297.413 24.8333 297.08 25.5C296.747 25.8333 296.413 26.1667 296.08 26.5C295.747 26.8333 295.247 27.3333 294.58 28C293.913 28.6667 293.413 29.3333 293.08 30C292.747 30.3333 292.08 31 291.08 32C290.08 33 289.58 33.8333 289.58 34.5C289.58 34.8333 290.08 34.6667 291.08 34C292.413 33 293.247 32.3333 293.58 32C293.913 31.6667 294.247 31.3333 294.58 31C294.913 30.6667 295.08 30.5 295.08 30.5C295.413 30.5 295.747 30.5 296.08 30.5C296.747 30.1667 297.413 30.1667 298.08 30.5C298.747 30.8333 299.413 31.5 300.08 32.5C300.747 33.1667 301.413 34 302.08 35C303.08 35.6667 303.58 36.3333 303.58 37C303.913 37.3333 303.747 37.6667 303.08 38C302.747 38.3333 302.413 38.6667 302.08 39C301.747 39.3333 301.413 39.5 301.08 39.5C300.747 39.5 299.247 39.5 296.58 39.5C293.913 39.5 291.747 39.5 290.08 39.5C288.747 39.5 287.247 39.6667 285.58 40C284.247 40 283.413 40 283.08 40C282.747 40 282.413 40.1667 282.08 40.5C282.08 40.5 281.747 40.6667 281.08 41C280.747 41 280.413 41.1667 280.08 41.5C280.08 41.8333 279.913 42.1667 279.58 42.5C279.247 42.5 278.58 42.8333 277.58 43.5C276.913 44.1667 276.247 44.6667 275.58 45C275.247 45.3333 274.247 46.1667 272.58 47.5C270.913 48.5 270.08 49.1667 270.08 49.5C270.413 49.5 271.58 49.5 273.58 49.5C275.58 49.5 277.413 49.5 279.08 49.5C280.747 49.5 281.58 49.5 281.58 49.5C281.913 49.5 282.413 49.1667 283.08 48.5C283.747 47.8333 284.413 47.3333 285.08 47C286.08 46.3333 286.747 46 287.08 46C287.747 45.6667 288.413 45.8333 289.08 46.5C290.08 46.8333 290.58 47.1667 290.58 47.5C290.913 47.5 291.413 47.6667 292.08 48C292.747 48 293.247 48.1667 293.58 48.5C293.913 48.8333 294.58 49.3333 295.58 50C296.58 50.3333 297.08 50.8333 297.08 51.5C297.08 52.1667 296.247 53.3333 294.58 55L293.58 56.5C293.247 66.1667 293.08 73 293.08 77C293.08 81 293.08 83.5 293.08 84.5C293.08 85.1667 292.913 85.8333 292.58 86.5C292.58 86.8333 292.08 88.1667 291.08 90.5C290.08 92.5 288.747 94 287.08 95C285.747 96 284.58 96 283.58 95C282.913 93.6667 282.413 93 282.08 93C282.08 92.6667 281.913 92.3333 281.58 92C281.58 91.6667 281.58 91.5 281.58 91.5C281.58 91.1667 281.58 91 281.58 91C281.58 91 281.413 90.8333 281.08 90.5C281.08 89.8333 280.747 89.3333 280.08 89L278.58 87C274.913 87 271.747 87 269.08 87C266.413 87 265.08 87 265.08 87C265.08 87 264.747 87.6667 264.08 89C263.413 90.3333 262.747 91.8333 262.08 93.5C261.413 94.8333 260.58 96 259.58 97C258.913 98 258.247 98.5 257.58 98.5C257.247 98.5 256.913 98.5 256.58 98.5C256.247 98.5 255.913 98.5 255.58 98.5C255.247 98.1667 254.913 97.8333 254.58 97.5L253.08 96.5C253.08 85.1667 253.08 78 253.08 75C253.08 71.6667 253.08 68.8333 253.08 66.5C253.08 63.8333 252.913 62.5 252.58 62.5C252.58 62.5 252.247 62.8333 251.58 63.5C251.247 63.8333 250.747 64.3333 250.08 65C249.413 65.3333 248.247 66.1667 246.58 67.5C245.247 68.5 243.747 69.6667 242.08 71C240.413 72 239.247 72.5 238.58 72.5C238.247 72.5 237.913 72.6667 237.58 73C237.247 73 236.747 72.8333 236.08 72.5C235.747 71.8333 235.58 71.3333 235.58 71C235.58 70.3333 235.58 70 235.58 70C235.58 69.6667 235.913 69.3333 236.58 69C237.247 68.3333 237.913 67.6667 238.58 67C239.58 66.3333 240.413 65.8333 241.08 65.5C242.08 64.8333 243.08 64 244.08 63C245.413 62 246.913 60.8333 248.58 59.5L253.08 56C253.08 54.3333 253.08 53.1667 253.08 52.5C253.08 51.8333 252.913 51.3333 252.58 51C252.58 50.3333 252.413 49.8333 252.08 49.5C252.08 49.1667 251.747 48.6667 251.08 48C250.747 47.3333 250.58 46.8333 250.58 46.5C250.58 46.1667 250.913 46 251.58 46C252.58 45.6667 253.247 45.5 253.58 45.5C253.913 45.5 254.247 45.5 254.58 45.5C255.247 45.5 255.913 45.6667 256.58 46C257.58 46.3333 258.247 46.6667 258.58 47C259.247 47 259.747 47.1667 260.08 47.5C260.747 47.5 261.08 47.5 261.08 47.5C261.413 47.5 261.58 47.5 261.58 47.5C261.913 47.5 262.413 47.3333 263.08 47C263.747 46.3333 264.413 45.6667 265.08 45C265.747 44.3333 266.913 43.3333 268.58 42C270.247 40.3333 271.08 39.5 271.08 39.5C271.08 39.5 269.247 39.5 265.58 39.5C262.247 39.5 259.58 39.6667 257.58 40C255.58 40 254.08 40 253.08 40C252.413 40 251.747 40.1667 251.08 40.5C250.413 40.8333 249.413 41.3333 248.08 42C246.747 42.3333 245.747 42.5 245.08 42.5C244.747 42.1667 244.08 41.5 243.08 40.5C242.413 39.5 241.747 38.6667 241.08 38C240.413 37.3333 239.913 36.6667 239.58 36C239.58 35.3333 239.747 34.8333 240.08 34.5C240.413 33.8333 240.58 33.5 240.58 33.5C240.913 33.1667 242.913 33 246.58 33C250.247 33 253.247 33.1667 255.58 33.5C258.247 33.8333 260.58 34.1667 262.58 34.5C264.913 34.8333 266.08 35 266.08 35C266.08 35 265.913 34 265.58 32C265.58 29.6667 265.58 27.8333 265.58 26.5C265.58 25.1667 265.58 24.3333 265.58 24C265.58 23.6667 265.413 23.5 265.08 23.5C265.08 23.1667 264.913 23 264.58 23C264.247 22.6667 263.413 22.6667 262.08 23C260.747 23 259.58 23.1667 258.58 23.5C257.58 23.8333 256.413 24.3333 255.08 25C253.747 25.3333 252.747 25.5 252.08 25.5C251.747 25.5 251.08 25 250.08 24C249.413 22.6667 248.58 21.3333 247.58 20C246.58 18.6667 246.247 17.6667 246.58 17C247.247 16 248.247 15.6667 249.58 16C251.247 16.3333 252.58 16.6667 253.58 17C254.58 17 256.58 17 259.58 17C262.58 17 264.247 17 264.58 17C264.913 16.6667 265.08 16.3333 265.08 16C265.413 15.6667 265.413 14 265.08 11C265.08 7.66667 264.913 5.83333 264.58 5.5C264.247 4.83333 263.913 4.33333 263.58 4C263.247 3.33333 263.08 2.83333 263.08 2.5C263.413 2.16667 263.913 1.83333 264.58 1.5ZM284.58 22C284.58 22 284.413 22 284.08 22C284.08 21.6667 283.913 21.5 283.58 21.5C283.247 21.5 282.747 21.5 282.08 21.5C281.413 21.5 280.247 21.5 278.58 21.5C277.247 21.5 276.413 21.6667 276.08 22C276.08 22 275.913 24 275.58 28V32.5C276.247 32.5 276.747 32.5 277.08 32.5C277.413 32.5 277.747 32.5 278.08 32.5C278.413 32.1667 278.747 31.6667 279.08 31C279.747 30.3333 280.247 29.8333 280.58 29.5C280.913 29.1667 281.247 28.6667 281.58 28C282.247 27.3333 282.58 27 282.58 27C282.913 26.6667 283.413 26.1667 284.08 25.5C284.747 24.8333 285.08 24.3333 285.08 24C285.08 23.3333 284.913 22.6667 284.58 22ZM282.08 54.5C282.08 54.5 281.913 54.5 281.58 54.5C281.58 54.5 280.913 54.5 279.58 54.5C278.58 54.1667 277.413 54 276.08 54C274.747 54 272.58 54 269.58 54C266.58 54 265.08 54 265.08 54C265.08 54 265.08 56 265.08 60V64C270.747 64 274.58 64 276.58 64C278.913 64 280.413 64 281.08 64C281.747 64 282.08 64 282.08 64C282.413 63.6667 282.58 63.5 282.58 63.5C282.58 63.1667 282.58 62.6667 282.58 62C282.913 61.3333 283.08 60.6667 283.08 60C283.08 59.3333 283.08 58.5 283.08 57.5C283.08 56.1667 283.08 55.5 283.08 55.5C283.08 55.1667 282.747 54.8333 282.08 54.5ZM282.08 74.5V69C279.747 69 277.913 69 276.58 69C275.247 69 273.247 69.1667 270.58 69.5C267.913 69.8333 266.413 70 266.08 70C265.747 70 265.413 70.1667 265.08 70.5C265.08 70.5 265.08 70.6667 265.08 71C265.08 71.3333 265.08 73 265.08 76V82C269.747 82 273.58 82 276.58 82C279.913 82 281.58 82 281.58 82C281.58 82 281.747 79.5 282.08 74.5ZM306.08 9C306.08 9 306.247 8.83333 306.58 8.5C306.913 7.83333 307.247 7.66667 307.58 8C307.913 8 308.413 8.16667 309.08 8.5C310.08 8.83333 311.913 9.66667 314.58 11C317.247 12.3333 318.413 13 318.08 13C318.08 12.6667 318.913 12.5 320.58 12.5C322.58 12.5 324.413 12.5 326.08 12.5C328.08 12.5 329.247 12.5 329.58 12.5C330.247 12.1667 330.913 11.8333 331.58 11.5C332.247 10.8333 332.58 10.5 332.58 10.5C332.913 10.1667 333.247 10 333.58 10C333.913 9.66667 334.08 9.5 334.08 9.5C334.413 9.5 334.913 9.5 335.58 9.5C336.247 9.5 337.247 10 338.58 11C340.247 12 341.247 12.8333 341.58 13.5C341.913 13.8333 342.247 14.3333 342.58 15C342.913 15.6667 343.08 16.1667 343.08 16.5C343.08 16.5 342.58 17 341.58 18C340.913 18.6667 340.413 19.1667 340.08 19.5C339.747 19.8333 339.413 20.3333 339.08 21C338.747 21.3333 338.247 22.1667 337.58 23.5C336.913 24.5 336.413 25.1667 336.08 25.5C336.08 25.8333 335.58 26.6667 334.58 28C333.913 29.3333 333.08 30.6667 332.08 32C331.413 33.3333 330.58 34.6667 329.58 36C328.58 37.3333 327.747 38.6667 327.08 40C326.413 41.3333 326.08 42 326.08 42C326.08 42 326.08 42.1667 326.08 42.5C326.08 42.5 326.247 42.6667 326.58 43C326.913 43.3333 327.247 43.6667 327.58 44C328.247 44.3333 329.08 45 330.08 46C331.08 46.6667 332.413 48 334.08 50C336.08 51.6667 337.413 53 338.08 54C338.747 55 339.58 56.3333 340.58 58C341.913 59.6667 342.747 61.1667 343.08 62.5C343.747 63.5 343.913 64.8333 343.58 66.5C343.58 68.1667 343.58 69.8333 343.58 71.5C343.58 73.1667 343.247 74.8333 342.58 76.5C342.247 77.8333 341.247 79.1667 339.58 80.5C338.247 81.8333 336.747 83.3333 335.08 85C333.747 86.3333 332.58 87 331.58 87C330.58 87 329.747 86.1667 329.08 84.5C328.413 82.5 327.913 81.3333 327.58 81C327.58 80.3333 327.247 79.8333 326.58 79.5C326.247 78.8333 325.913 78.3333 325.58 78C325.247 77.6667 324.747 77.1667 324.08 76.5C323.413 75.8333 322.913 75.3333 322.58 75C322.58 74.3333 322.747 73.8333 323.08 73.5C323.747 73.1667 324.08 73 324.08 73C324.413 73 324.747 73 325.08 73C325.747 72.6667 326.247 72.5 326.58 72.5C327.247 72.1667 328.247 72 329.58 72C330.913 71.6667 331.58 71.5 331.58 71.5C331.913 71.5 332.08 71.1667 332.08 70.5C332.08 69.5 332.08 68.5 332.08 67.5C332.08 66.1667 331.913 64.6667 331.58 63C331.247 61 330.747 59.5 330.08 58.5C329.413 57.1667 328.747 56 328.08 55C327.747 53.6667 327.413 52.8333 327.08 52.5C326.747 51.8333 326.08 51 325.08 50C324.413 48.6667 323.913 47.8333 323.58 47.5C323.247 47.1667 322.913 46.8333 322.58 46.5C322.247 45.8333 321.913 45.3333 321.58 45C321.58 44.6667 321.413 44.3333 321.08 44C321.08 43.3333 321.08 42.6667 321.08 42C321.08 41 321.08 40.1667 321.08 39.5C321.413 38.8333 321.58 38.3333 321.58 38C321.913 37.6667 322.08 37.3333 322.08 37C322.413 36.3333 322.58 35.8333 322.58 35.5C322.58 35.1667 322.58 34.8333 322.58 34.5C322.913 33.8333 323.08 33.3333 323.08 33C323.413 32.3333 323.58 32 323.58 32C323.913 31.6667 324.08 31.3333 324.08 31C324.413 30.6667 324.58 30.3333 324.58 30C324.58 29.6667 324.58 29.3333 324.58 29C324.913 28.6667 325.08 28.5 325.08 28.5C325.08 28.1667 325.08 27.8333 325.08 27.5C325.413 26.8333 325.58 26.5 325.58 26.5C325.58 26.1667 325.747 25.5 326.08 24.5C326.747 23.5 327.247 22.3333 327.58 21C327.913 19.6667 328.08 18.8333 328.08 18.5C328.08 18.1667 327.913 18 327.58 18C327.58 17.6667 327.413 17.5 327.08 17.5C326.747 17.5 325.913 17.5 324.58 17.5C323.247 17.5 322.08 17.6667 321.08 18C320.08 18 319.247 18 318.58 18C317.913 18 317.413 18.1667 317.08 18.5C317.08 18.5 316.913 18.6667 316.58 19C316.58 19 316.58 20.1667 316.58 22.5C316.58 24.5 316.747 35.8333 317.08 56.5L317.58 93.5C316.58 95.5 315.913 97.1667 315.58 98.5C315.247 99.5 314.58 100.833 313.58 102.5C312.58 104.167 311.913 105 311.58 105C311.247 105.333 310.913 105.5 310.58 105.5C310.247 105.833 309.913 106 309.58 106C309.58 106 309.247 105.5 308.58 104.5L307.08 103.5C307.08 73.1667 307.08 51.1667 307.08 37.5C307.08 23.8333 307.08 16.3333 307.08 15C307.08 13.6667 306.913 12.8333 306.58 12.5C306.247 11.8333 305.913 11.3333 305.58 11C305.58 10.3333 305.58 10 305.58 10C305.58 9.66667 305.747 9.33333 306.08 9Z" fill="#DE79B5"/>
</svg>
